# xmcd
#
# Track frame offsets: 
#        150
#        23002
#        42542
#        60980
#        79527
#        97075
#        119925
#        141687
#        159100
#        179870
#        194222
#        214767
#
# Disc length: 3127 seconds
#
# Revision: 1
# Processed by: cddbd v1.5.1PL2 Copyright (c) Steve Scherf et al.
# Submitted via: ExactAudioCopy v0.95a5
#
DISCID=b90c350c
DTITLE=Mass Inside Bloom - Sound Canon-Castle 
DYEAR=2004
DGENRE=New Age
TTITLE0=Asian Wind
TTITLE1=Stardust Tapestry
TTITLE2=Piano and Cord [Kataribe]
TTITLE3=Seasons
TTITLE4=Moon Beach
TTITLE5=Marco Polo
TTITLE6=Desert Mirage
TTITLE7=Pilgrimage
TTITLE8=Shangri-La
TTITLE9=Shanghai Twilight
TTITLE10=Night Bird
TTITLE11=Drizzle Old Road (Kirisamekodo)
EXTD=YEAR: 2004
EXTT0=
EXTT1=
EXTT2=
EXTT3=
EXTT4=
EXTT5=
EXTT6=
EXTT7=
EXTT8=
EXTT9=
EXTT10=
EXTT11=
PLAYORDER=
